{
	"asset":{
		"generator":"Khronos glTF Blender I/O v3.6.27",
		"version":"2.0"
	},
	"extensionsUsed":[
		"KHR_materials_specular",
		"KHR_materials_ior"
	],
	"scene":0,
	"scenes":[
		{
			"name":"Scene",
			"nodes":[
				0
			]
		}
	],
	"nodes":[
		{
			"mesh":0,
			"name":"key",
			"scale":[
				5,
				5,
				5
			],
			"translation":[
				0,
				-2.468025741109159e-05,
				-1.3793156540486962e-05
			]
		}
	],
	"materials":[
		{
			"doubleSided":true,
			"extensions":{
				"KHR_materials_specular":{
					"specularColorFactor":[
						2.371357614441398,
						2.371357614441398,
						2.371357614441398
					]
				},
				"KHR_materials_ior":{
					"ior":1.4500000476837158
				}
			},
			"name":"Brass 1160-CH",
			"normalTexture":{
				"index":0
			},
			"pbrMetallicRoughness":{
				"baseColorTexture":{
					"index":1
				},
				"metallicFactor":0.7698744535446167,
				"roughnessFactor":0.5695227980613708
			}
		}
	],
	"meshes":[
		{
			"name":"Mesh",
			"primitives":[
				{
					"attributes":{
						"POSITION":0,
						"NORMAL":1,
						"TEXCOORD_0":2
					},
					"indices":3,
					"material":0
				}
			]
		}
	],
	"textures":[
		{
			"sampler":0,
			"source":0
		},
		{
			"sampler":0,
			"source":1
		}
	],
	"images":[
		{
			"mimeType":"image/png",
			"name":"export_normal_map",
			"uri":"export_normal_map.png"
		},
		{
			"mimeType":"image/jpeg",
			"name":"gold",
			"uri":"gold.jpg"
		}
	],
	"accessors":[
		{
			"bufferView":0,
			"componentType":5126,
			"count":2147,
			"max":[
				0.23960506916046143,
				0.6278949975967407,
				0.06205097585916519
			],
			"min":[
				-0.23960506916046143,
				-0.6278949975967407,
				-0.06205097585916519
			],
			"type":"VEC3"
		},
		{
			"bufferView":1,
			"componentType":5126,
			"count":2147,
			"type":"VEC3"
		},
		{
			"bufferView":2,
			"componentType":5126,
			"count":2147,
			"type":"VEC2"
		},
		{
			"bufferView":3,
			"componentType":5123,
			"count":11268,
			"type":"SCALAR"
		}
	],
	"bufferViews":[
		{
			"buffer":0,
			"byteLength":25764,
			"byteOffset":0,
			"target":34962
		},
		{
			"buffer":0,
			"byteLength":25764,
			"byteOffset":25764,
			"target":34962
		},
		{
			"buffer":0,
			"byteLength":17176,
			"byteOffset":51528,
			"target":34962
		},
		{
			"buffer":0,
			"byteLength":22536,
			"byteOffset":68704,
			"target":34963
		}
	],
	"samplers":[
		{
			"magFilter":9729,
			"minFilter":9987
		}
	],
	"buffers":[
		{
			"byteLength":91240,
			"uri":"key.bin"
		}
	]
}
