{
	"asset":{
		"generator":"Khronos glTF Blender I/O v3.6.27",
		"version":"2.0"
	},
	"scene":0,
	"scenes":[
		{
			"name":"Scene",
			"nodes":[
				0
			]
		}
	],
	"nodes":[
		{
			"mesh":0,
			"name":"Lock_obj",
			"rotation":[
				0.7071067690849304,
				0,
				0,
				0.7071068286895752
			],
			"scale":[
				0.011013454757630825,
				0.011013454757630825,
				0.011013454757630825
			]
		}
	],
	"materials":[
		{
			"doubleSided":true,
			"name":"mat",
			"pbrMetallicRoughness":{
				"baseColorTexture":{
					"index":0
				},
				"metallicFactor":0,
				"roughnessFactor":0.6381818056106567
			}
		},
		{
			"doubleSided":true,
			"name":"Material.001",
			"pbrMetallicRoughness":{
				"baseColorFactor":[
					0.8000000715255737,
					0.6067800521850586,
					0,
					1
				],
				"metallicFactor":0,
				"roughnessFactor":0.5
			}
		}
	],
	"meshes":[
		{
			"name":"Lock_obj",
			"primitives":[
				{
					"attributes":{
						"POSITION":0,
						"NORMAL":1,
						"TEXCOORD_0":2
					},
					"indices":3,
					"material":0
				},
				{
					"attributes":{
						"POSITION":4,
						"NORMAL":5,
						"TEXCOORD_0":6
					},
					"indices":7,
					"material":1
				}
			]
		}
	],
	"textures":[
		{
			"sampler":0,
			"source":0
		}
	],
	"images":[
		{
			"mimeType":"image/jpeg",
			"name":"mat",
			"uri":"mat.jpg"
		}
	],
	"accessors":[
		{
			"bufferView":0,
			"componentType":5126,
			"count":2900,
			"max":[
				20.792699813842773,
				7.915200233459473,
				0.08860000222921371
			],
			"min":[
				-20.792699813842773,
				-7.915200233459473,
				-36.91270065307617
			],
			"type":"VEC3"
		},
		{
			"bufferView":1,
			"componentType":5126,
			"count":2900,
			"type":"VEC3"
		},
		{
			"bufferView":2,
			"componentType":5126,
			"count":2900,
			"type":"VEC2"
		},
		{
			"bufferView":3,
			"componentType":5123,
			"count":5622,
			"type":"SCALAR"
		},
		{
			"bufferView":4,
			"componentType":5126,
			"count":876,
			"max":[
				13.097399711608887,
				8.776900291442871,
				-7.973100185394287
			],
			"min":[
				-13.097399711608887,
				7.049600124359131,
				-28.850900650024414
			],
			"type":"VEC3"
		},
		{
			"bufferView":5,
			"componentType":5126,
			"count":876,
			"type":"VEC3"
		},
		{
			"bufferView":6,
			"componentType":5126,
			"count":876,
			"type":"VEC2"
		},
		{
			"bufferView":7,
			"componentType":5123,
			"count":1296,
			"type":"SCALAR"
		}
	],
	"bufferViews":[
		{
			"buffer":0,
			"byteLength":34800,
			"byteOffset":0,
			"target":34962
		},
		{
			"buffer":0,
			"byteLength":34800,
			"byteOffset":34800,
			"target":34962
		},
		{
			"buffer":0,
			"byteLength":23200,
			"byteOffset":69600,
			"target":34962
		},
		{
			"buffer":0,
			"byteLength":11244,
			"byteOffset":92800,
			"target":34963
		},
		{
			"buffer":0,
			"byteLength":10512,
			"byteOffset":104044,
			"target":34962
		},
		{
			"buffer":0,
			"byteLength":10512,
			"byteOffset":114556,
			"target":34962
		},
		{
			"buffer":0,
			"byteLength":7008,
			"byteOffset":125068,
			"target":34962
		},
		{
			"buffer":0,
			"byteLength":2592,
			"byteOffset":132076,
			"target":34963
		}
	],
	"samplers":[
		{
			"magFilter":9729,
			"minFilter":9987
		}
	],
	"buffers":[
		{
			"byteLength":134668,
			"uri":"lock.bin"
		}
	]
}
