{
	"asset":{
		"generator":"Khronos glTF Blender I/O v3.6.27",
		"version":"2.0"
	},
	"extensionsUsed":[
		"KHR_materials_transmission",
		"KHR_materials_ior"
	],
	"scene":0,
	"scenes":[
		{
			"name":"Scene",
			"nodes":[
				0
			]
		}
	],
	"nodes":[
		{
			"mesh":0,
			"name":"Cylinder.007",
			"rotation":[
				0.7071068286895752,
				0,
				0,
				0.7071068286895752
			],
			"translation":[
				0.5837337970733643,
				1.1091383695602417,
				-0.08966498076915741
			]
		}
	],
	"materials":[
		{
			"doubleSided":true,
			"extensions":{
				"KHR_materials_transmission":{
					"transmissionFactor":1
				},
				"KHR_materials_ior":{
					"ior":1.4500000476837158
				}
			},
			"name":"black",
			"pbrMetallicRoughness":{
				"baseColorFactor":[
					0,
					0,
					0,
					1
				],
				"roughnessFactor":0
			}
		},
		{
			"doubleSided":true,
			"name":"camera image",
			"pbrMetallicRoughness":{
				"baseColorTexture":{
					"index":0
				},
				"metallicFactor":0,
				"roughnessFactor":0.5
			}
		},
		{
			"doubleSided":true,
			"name":"Red 2",
			"pbrMetallicRoughness":{
				"baseColorFactor":[
					0.6628588438034058,
					0,
					0.002124407794326544,
					1
				],
				"metallicFactor":0.955719530582428,
				"roughnessFactor":0.10332103073596954
			}
		},
		{
			"doubleSided":true,
			"name":"Red",
			"pbrMetallicRoughness":{
				"baseColorFactor":[
					0.16245266795158386,
					0,
					0.003141926834359765,
					1
				],
				"metallicFactor":0,
				"roughnessFactor":0.5
			}
		},
		{
			"doubleSided":true,
			"name":"white",
			"pbrMetallicRoughness":{
				"baseColorFactor":[
					1,
					0.9827654361724854,
					0.6978850960731506,
					1
				],
				"metallicFactor":0.3393939435482025,
				"roughnessFactor":0.3799999952316284
			}
		}
	],
	"meshes":[
		{
			"name":"Cylinder.008",
			"primitives":[
				{
					"attributes":{
						"POSITION":0,
						"NORMAL":1,
						"TEXCOORD_0":2
					},
					"indices":3,
					"material":0
				},
				{
					"attributes":{
						"POSITION":4,
						"NORMAL":5,
						"TEXCOORD_0":6
					},
					"indices":7,
					"material":1
				},
				{
					"attributes":{
						"POSITION":8,
						"NORMAL":9,
						"TEXCOORD_0":10
					},
					"indices":11,
					"material":2
				},
				{
					"attributes":{
						"POSITION":12,
						"NORMAL":13,
						"TEXCOORD_0":14
					},
					"indices":15,
					"material":3
				},
				{
					"attributes":{
						"POSITION":16,
						"NORMAL":17,
						"TEXCOORD_0":18
					},
					"indices":19,
					"material":4
				}
			]
		}
	],
	"textures":[
		{
			"sampler":0,
			"source":0
		}
	],
	"images":[
		{
			"mimeType":"image/png",
			"name":"unnamed",
			"uri":"unnamed.png"
		}
	],
	"accessors":[
		{
			"bufferView":0,
			"componentType":5126,
			"count":3194,
			"max":[
				0.24569326639175415,
				0.180803120136261,
				2.8596415519714355
			],
			"min":[
				-1.413160800933838,
				-0.06797697395086288,
				-0.6413648128509521
			],
			"type":"VEC3"
		},
		{
			"bufferView":1,
			"componentType":5126,
			"count":3194,
			"type":"VEC3"
		},
		{
			"bufferView":2,
			"componentType":5126,
			"count":3194,
			"type":"VEC2"
		},
		{
			"bufferView":3,
			"componentType":5123,
			"count":5352,
			"type":"SCALAR"
		},
		{
			"bufferView":4,
			"componentType":5126,
			"count":2656,
			"max":[
				0.1320786476135254,
				-0.049278806895017624,
				0.1320786476135254
			],
			"min":[
				-0.4608466625213623,
				-0.059528648853302,
				-0.5065226554870605
			],
			"type":"VEC3"
		},
		{
			"bufferView":5,
			"componentType":5126,
			"count":2656,
			"type":"VEC3"
		},
		{
			"bufferView":6,
			"componentType":5126,
			"count":2656,
			"type":"VEC2"
		},
		{
			"bufferView":7,
			"componentType":5123,
			"count":4110,
			"type":"SCALAR"
		},
		{
			"bufferView":8,
			"componentType":5126,
			"count":272,
			"max":[
				0.27646881341934204,
				0.180803120136261,
				2.8904170989990234
			],
			"min":[
				-1.4439363479614258,
				-0.044125307351350784,
				-0.67214035987854
			],
			"type":"VEC3"
		},
		{
			"bufferView":9,
			"componentType":5126,
			"count":272,
			"type":"VEC3"
		},
		{
			"bufferView":10,
			"componentType":5126,
			"count":272,
			"type":"VEC2"
		},
		{
			"bufferView":11,
			"componentType":5123,
			"count":1452,
			"type":"SCALAR"
		},
		{
			"bufferView":12,
			"componentType":5126,
			"count":616,
			"max":[
				0.30063411593437195,
				0.11830919235944748,
				2.8596415519714355
			],
			"min":[
				-1.465920329093933,
				-0.0014730468392372131,
				-0.6413648128509521
			],
			"type":"VEC3"
		},
		{
			"bufferView":13,
			"componentType":5126,
			"count":616,
			"type":"VEC3"
		},
		{
			"bufferView":14,
			"componentType":5126,
			"count":616,
			"type":"VEC2"
		},
		{
			"bufferView":15,
			"componentType":5123,
			"count":2634,
			"type":"SCALAR"
		},
		{
			"bufferView":16,
			"componentType":5126,
			"count":32,
			"max":[
				-0.26738983392715454,
				-0.04769422858953476,
				-0.3914262056350708
			],
			"min":[
				-0.3964420557022095,
				-0.04769422858953476,
				-0.520478367805481
			],
			"type":"VEC3"
		},
		{
			"bufferView":17,
			"componentType":5126,
			"count":32,
			"type":"VEC3"
		},
		{
			"bufferView":18,
			"componentType":5126,
			"count":32,
			"type":"VEC2"
		},
		{
			"bufferView":19,
			"componentType":5123,
			"count":90,
			"type":"SCALAR"
		}
	],
	"bufferViews":[
		{
			"buffer":0,
			"byteLength":38328,
			"byteOffset":0,
			"target":34962
		},
		{
			"buffer":0,
			"byteLength":38328,
			"byteOffset":38328,
			"target":34962
		},
		{
			"buffer":0,
			"byteLength":25552,
			"byteOffset":76656,
			"target":34962
		},
		{
			"buffer":0,
			"byteLength":10704,
			"byteOffset":102208,
			"target":34963
		},
		{
			"buffer":0,
			"byteLength":31872,
			"byteOffset":112912,
			"target":34962
		},
		{
			"buffer":0,
			"byteLength":31872,
			"byteOffset":144784,
			"target":34962
		},
		{
			"buffer":0,
			"byteLength":21248,
			"byteOffset":176656,
			"target":34962
		},
		{
			"buffer":0,
			"byteLength":8220,
			"byteOffset":197904,
			"target":34963
		},
		{
			"buffer":0,
			"byteLength":3264,
			"byteOffset":206124,
			"target":34962
		},
		{
			"buffer":0,
			"byteLength":3264,
			"byteOffset":209388,
			"target":34962
		},
		{
			"buffer":0,
			"byteLength":2176,
			"byteOffset":212652,
			"target":34962
		},
		{
			"buffer":0,
			"byteLength":2904,
			"byteOffset":214828,
			"target":34963
		},
		{
			"buffer":0,
			"byteLength":7392,
			"byteOffset":217732,
			"target":34962
		},
		{
			"buffer":0,
			"byteLength":7392,
			"byteOffset":225124,
			"target":34962
		},
		{
			"buffer":0,
			"byteLength":4928,
			"byteOffset":232516,
			"target":34962
		},
		{
			"buffer":0,
			"byteLength":5268,
			"byteOffset":237444,
			"target":34963
		},
		{
			"buffer":0,
			"byteLength":384,
			"byteOffset":242712,
			"target":34962
		},
		{
			"buffer":0,
			"byteLength":384,
			"byteOffset":243096,
			"target":34962
		},
		{
			"buffer":0,
			"byteLength":256,
			"byteOffset":243480,
			"target":34962
		},
		{
			"buffer":0,
			"byteLength":180,
			"byteOffset":243736,
			"target":34963
		}
	],
	"samplers":[
		{
			"magFilter":9729,
			"minFilter":9987
		}
	],
	"buffers":[
		{
			"byteLength":243916,
			"uri":"mobile.bin"
		}
	]
}
