{
	"asset":{
		"generator":"Khronos glTF Blender I/O v3.6.27",
		"version":"2.0"
	},
	"extensionsUsed":[
		"KHR_materials_specular",
		"KHR_materials_ior"
	],
	"scene":0,
	"scenes":[
		{
			"name":"Scene",
			"nodes":[
				0,
				1,
				2,
				3,
				4,
				5,
				6,
				7,
				8
			]
		}
	],
	"nodes":[
		{
			"mesh":0,
			"name":"bottom_holder",
			"rotation":[
				0.7071068286895752,
				0,
				0,
				0.7071068286895752
			]
		},
		{
			"mesh":1,
			"name":"middle_body",
			"rotation":[
				0.7071068286895752,
				0,
				0,
				0.7071068286895752
			]
		},
		{
			"mesh":2,
			"name":"nurb",
			"rotation":[
				0.7071068286895752,
				0,
				0,
				0.7071068286895752
			]
		},
		{
			"mesh":3,
			"name":"nurb_1",
			"rotation":[
				0.7071068286895752,
				0,
				0,
				0.7071068286895752
			]
		},
		{
			"mesh":4,
			"name":"phone_holder",
			"rotation":[
				0.7071068286895752,
				0,
				0,
				0.7071068286895752
			]
		},
		{
			"mesh":5,
			"name":"stand_foams_1",
			"rotation":[
				0.7071068286895752,
				0,
				0,
				0.7071068286895752
			]
		},
		{
			"mesh":6,
			"name":"stand_foams_2",
			"rotation":[
				0.7071068286895752,
				0,
				0,
				0.7071068286895752
			]
		},
		{
			"mesh":7,
			"name":"stand_frame",
			"rotation":[
				0.7071068286895752,
				0,
				0,
				0.7071068286895752
			]
		},
		{
			"mesh":8,
			"name":"top_holder",
			"rotation":[
				0.7071068286895752,
				0,
				0,
				0.7071068286895752
			]
		}
	],
	"materials":[
		{
			"doubleSided":true,
			"extensions":{
				"KHR_materials_specular":{
					"specularColorFactor":[
						0,
						0,
						0
					]
				},
				"KHR_materials_ior":{
					"ior":1.4500000476837158
				}
			},
			"name":"body",
			"normalTexture":{
				"index":0
			},
			"pbrMetallicRoughness":{
				"baseColorTexture":{
					"index":1
				},
				"metallicRoughnessTexture":{
					"index":2
				}
			}
		},
		{
			"doubleSided":true,
			"extensions":{
				"KHR_materials_specular":{
					"specularColorFactor":[
						0,
						0,
						0
					]
				},
				"KHR_materials_ior":{
					"ior":1.4500000476837158
				}
			},
			"name":"nurb",
			"normalTexture":{
				"index":3
			},
			"pbrMetallicRoughness":{
				"baseColorTexture":{
					"index":4
				},
				"metallicRoughnessTexture":{
					"index":5
				}
			}
		}
	],
	"meshes":[
		{
			"name":"bottom_holder",
			"primitives":[
				{
					"attributes":{
						"POSITION":0,
						"NORMAL":1,
						"TEXCOORD_0":2
					},
					"indices":3,
					"material":0
				}
			]
		},
		{
			"name":"middle_body",
			"primitives":[
				{
					"attributes":{
						"POSITION":4,
						"NORMAL":5,
						"TEXCOORD_0":6
					},
					"indices":7,
					"material":0
				}
			]
		},
		{
			"name":"nurb",
			"primitives":[
				{
					"attributes":{
						"POSITION":8,
						"NORMAL":9,
						"TEXCOORD_0":10
					},
					"indices":11,
					"material":1
				}
			]
		},
		{
			"name":"nurb_1",
			"primitives":[
				{
					"attributes":{
						"POSITION":12,
						"NORMAL":13,
						"TEXCOORD_0":14
					},
					"indices":15,
					"material":1
				}
			]
		},
		{
			"name":"phone_holder",
			"primitives":[
				{
					"attributes":{
						"POSITION":16,
						"NORMAL":17,
						"TEXCOORD_0":18
					},
					"indices":19,
					"material":0
				}
			]
		},
		{
			"name":"stand_foams_1",
			"primitives":[
				{
					"attributes":{
						"POSITION":20,
						"NORMAL":21,
						"TEXCOORD_0":22
					},
					"indices":23,
					"material":0
				}
			]
		},
		{
			"name":"stand_foams_2",
			"primitives":[
				{
					"attributes":{
						"POSITION":24,
						"NORMAL":25,
						"TEXCOORD_0":26
					},
					"indices":27,
					"material":0
				}
			]
		},
		{
			"name":"stand_frame",
			"primitives":[
				{
					"attributes":{
						"POSITION":28,
						"NORMAL":29,
						"TEXCOORD_0":30
					},
					"indices":31,
					"material":0
				}
			]
		},
		{
			"name":"top_holder",
			"primitives":[
				{
					"attributes":{
						"POSITION":32,
						"NORMAL":33,
						"TEXCOORD_0":34
					},
					"indices":35,
					"material":0
				}
			]
		}
	],
	"textures":[
		{
			"sampler":0,
			"source":0
		},
		{
			"sampler":0,
			"source":1
		},
		{
			"sampler":0,
			"source":2
		},
		{
			"sampler":0,
			"source":3
		},
		{
			"sampler":0,
			"source":4
		},
		{
			"sampler":0,
			"source":5
		}
	],
	"images":[
		{
			"mimeType":"image/png",
			"name":"normal",
			"uri":"normal.png"
		},
		{
			"mimeType":"image/jpeg",
			"name":"base color",
			"uri":"base%20color.jpg"
		},
		{
			"mimeType":"image/png",
			"name":"metallic-roughness",
			"uri":"metallic-roughness.png"
		},
		{
			"mimeType":"image/jpeg",
			"name":"normal",
			"uri":"normal-1.jpg"
		},
		{
			"mimeType":"image/png",
			"name":"NURB WHITE",
			"uri":"NURB%20WHITE.png"
		},
		{
			"mimeType":"image/png",
			"name":"Metallic-roughness.jpg",
			"uri":"Metallic-roughness_jpg.png"
		}
	],
	"accessors":[
		{
			"bufferView":0,
			"componentType":5126,
			"count":418,
			"max":[
				0.784609854221344,
				-0.6423301100730896,
				1.343464732170105
			],
			"min":[
				-0.784609854221344,
				-0.8826547265052795,
				1.1031402349472046
			],
			"type":"VEC3"
		},
		{
			"bufferView":1,
			"componentType":5126,
			"count":418,
			"type":"VEC3"
		},
		{
			"bufferView":2,
			"componentType":5126,
			"count":418,
			"type":"VEC2"
		},
		{
			"bufferView":3,
			"componentType":5123,
			"count":2112,
			"type":"SCALAR"
		},
		{
			"bufferView":4,
			"componentType":5126,
			"count":2354,
			"max":[
				0.7722011804580688,
				-0.578105092048645,
				1.4076899290084839
			],
			"min":[
				-0.7722011804580688,
				-0.9468796849250793,
				-1.5088987350463867
			],
			"type":"VEC3"
		},
		{
			"bufferView":5,
			"componentType":5126,
			"count":2354,
			"type":"VEC3"
		},
		{
			"bufferView":6,
			"componentType":5126,
			"count":2354,
			"type":"VEC2"
		},
		{
			"bufferView":7,
			"componentType":5123,
			"count":9372,
			"type":"SCALAR"
		},
		{
			"bufferView":8,
			"componentType":5126,
			"count":433,
			"max":[
				0.8348169922828674,
				-0.5782391428947449,
				1.40761137008667
			],
			"min":[
				-0.8348169922828674,
				-0.94693523645401,
				1.0389151573181152
			],
			"type":"VEC3"
		},
		{
			"bufferView":9,
			"componentType":5126,
			"count":433,
			"type":"VEC3"
		},
		{
			"bufferView":10,
			"componentType":5126,
			"count":433,
			"type":"VEC2"
		},
		{
			"bufferView":11,
			"componentType":5123,
			"count":1920,
			"type":"SCALAR"
		},
		{
			"bufferView":12,
			"componentType":5126,
			"count":492,
			"max":[
				0.6420957446098328,
				-0.5803248286247253,
				-1.1402026414871216
			],
			"min":[
				-0.6420957446098328,
				-0.9490209817886353,
				-1.5088987350463867
			],
			"type":"VEC3"
		},
		{
			"bufferView":13,
			"componentType":5126,
			"count":492,
			"type":"VEC3"
		},
		{
			"bufferView":14,
			"componentType":5126,
			"count":492,
			"type":"VEC2"
		},
		{
			"bufferView":15,
			"componentType":5123,
			"count":1920,
			"type":"SCALAR"
		},
		{
			"bufferView":16,
			"componentType":5126,
			"count":2363,
			"max":[
				0.6512095332145691,
				0.2052231729030609,
				0.3613392412662506
			],
			"min":[
				-0.6512095332145691,
				-0.9472983479499817,
				-1.5058146715164185
			],
			"type":"VEC3"
		},
		{
			"bufferView":17,
			"componentType":5126,
			"count":2363,
			"type":"VEC3"
		},
		{
			"bufferView":18,
			"componentType":5126,
			"count":2363,
			"type":"VEC2"
		},
		{
			"bufferView":19,
			"componentType":5123,
			"count":8604,
			"type":"SCALAR"
		},
		{
			"bufferView":20,
			"componentType":5126,
			"count":480,
			"max":[
				0.6927706599235535,
				-0.2780241370201111,
				1.4317646026611328
			],
			"min":[
				-0.6927706599235535,
				-0.49719882011413574,
				1.381697177886963
			],
			"type":"VEC3"
		},
		{
			"bufferView":21,
			"componentType":5126,
			"count":480,
			"type":"VEC3"
		},
		{
			"bufferView":22,
			"componentType":5126,
			"count":480,
			"type":"VEC2"
		},
		{
			"bufferView":23,
			"componentType":5123,
			"count":1920,
			"type":"SCALAR"
		},
		{
			"bufferView":24,
			"componentType":5126,
			"count":532,
			"max":[
				0.6314149498939514,
				1.1210001707077026,
				1.4317646026611328
			],
			"min":[
				-0.6314149498939514,
				0.9018255472183228,
				1.381697177886963
			],
			"type":"VEC3"
		},
		{
			"bufferView":25,
			"componentType":5126,
			"count":532,
			"type":"VEC3"
		},
		{
			"bufferView":26,
			"componentType":5126,
			"count":532,
			"type":"VEC2"
		},
		{
			"bufferView":27,
			"componentType":5123,
			"count":1920,
			"type":"SCALAR"
		},
		{
			"bufferView":28,
			"componentType":5126,
			"count":2128,
			"max":[
				0.7726699709892273,
				1.3336509466171265,
				1.4076899290084839
			],
			"min":[
				-0.7726699709892273,
				-0.9468796849250793,
				1.0389151573181152
			],
			"type":"VEC3"
		},
		{
			"bufferView":29,
			"componentType":5126,
			"count":2128,
			"type":"VEC3"
		},
		{
			"bufferView":30,
			"componentType":5126,
			"count":2128,
			"type":"VEC2"
		},
		{
			"bufferView":31,
			"componentType":5123,
			"count":7284,
			"type":"SCALAR"
		},
		{
			"bufferView":32,
			"componentType":5126,
			"count":274,
			"max":[
				0.0006034791003912687,
				-0.0006444157916121185,
				-0.0012043489841744304
			],
			"min":[
				-0.0006032879464328289,
				-0.0008847404387779534,
				-0.0014446736313402653
			],
			"type":"VEC3"
		},
		{
			"bufferView":33,
			"componentType":5126,
			"count":274,
			"type":"VEC3"
		},
		{
			"bufferView":34,
			"componentType":5126,
			"count":274,
			"type":"VEC2"
		},
		{
			"bufferView":35,
			"componentType":5123,
			"count":1248,
			"type":"SCALAR"
		}
	],
	"bufferViews":[
		{
			"buffer":0,
			"byteLength":5016,
			"byteOffset":0,
			"target":34962
		},
		{
			"buffer":0,
			"byteLength":5016,
			"byteOffset":5016,
			"target":34962
		},
		{
			"buffer":0,
			"byteLength":3344,
			"byteOffset":10032,
			"target":34962
		},
		{
			"buffer":0,
			"byteLength":4224,
			"byteOffset":13376,
			"target":34963
		},
		{
			"buffer":0,
			"byteLength":28248,
			"byteOffset":17600,
			"target":34962
		},
		{
			"buffer":0,
			"byteLength":28248,
			"byteOffset":45848,
			"target":34962
		},
		{
			"buffer":0,
			"byteLength":18832,
			"byteOffset":74096,
			"target":34962
		},
		{
			"buffer":0,
			"byteLength":18744,
			"byteOffset":92928,
			"target":34963
		},
		{
			"buffer":0,
			"byteLength":5196,
			"byteOffset":111672,
			"target":34962
		},
		{
			"buffer":0,
			"byteLength":5196,
			"byteOffset":116868,
			"target":34962
		},
		{
			"buffer":0,
			"byteLength":3464,
			"byteOffset":122064,
			"target":34962
		},
		{
			"buffer":0,
			"byteLength":3840,
			"byteOffset":125528,
			"target":34963
		},
		{
			"buffer":0,
			"byteLength":5904,
			"byteOffset":129368,
			"target":34962
		},
		{
			"buffer":0,
			"byteLength":5904,
			"byteOffset":135272,
			"target":34962
		},
		{
			"buffer":0,
			"byteLength":3936,
			"byteOffset":141176,
			"target":34962
		},
		{
			"buffer":0,
			"byteLength":3840,
			"byteOffset":145112,
			"target":34963
		},
		{
			"buffer":0,
			"byteLength":28356,
			"byteOffset":148952,
			"target":34962
		},
		{
			"buffer":0,
			"byteLength":28356,
			"byteOffset":177308,
			"target":34962
		},
		{
			"buffer":0,
			"byteLength":18904,
			"byteOffset":205664,
			"target":34962
		},
		{
			"buffer":0,
			"byteLength":17208,
			"byteOffset":224568,
			"target":34963
		},
		{
			"buffer":0,
			"byteLength":5760,
			"byteOffset":241776,
			"target":34962
		},
		{
			"buffer":0,
			"byteLength":5760,
			"byteOffset":247536,
			"target":34962
		},
		{
			"buffer":0,
			"byteLength":3840,
			"byteOffset":253296,
			"target":34962
		},
		{
			"buffer":0,
			"byteLength":3840,
			"byteOffset":257136,
			"target":34963
		},
		{
			"buffer":0,
			"byteLength":6384,
			"byteOffset":260976,
			"target":34962
		},
		{
			"buffer":0,
			"byteLength":6384,
			"byteOffset":267360,
			"target":34962
		},
		{
			"buffer":0,
			"byteLength":4256,
			"byteOffset":273744,
			"target":34962
		},
		{
			"buffer":0,
			"byteLength":3840,
			"byteOffset":278000,
			"target":34963
		},
		{
			"buffer":0,
			"byteLength":25536,
			"byteOffset":281840,
			"target":34962
		},
		{
			"buffer":0,
			"byteLength":25536,
			"byteOffset":307376,
			"target":34962
		},
		{
			"buffer":0,
			"byteLength":17024,
			"byteOffset":332912,
			"target":34962
		},
		{
			"buffer":0,
			"byteLength":14568,
			"byteOffset":349936,
			"target":34963
		},
		{
			"buffer":0,
			"byteLength":3288,
			"byteOffset":364504,
			"target":34962
		},
		{
			"buffer":0,
			"byteLength":3288,
			"byteOffset":367792,
			"target":34962
		},
		{
			"buffer":0,
			"byteLength":2192,
			"byteOffset":371080,
			"target":34962
		},
		{
			"buffer":0,
			"byteLength":2496,
			"byteOffset":373272,
			"target":34963
		}
	],
	"samplers":[
		{
			"magFilter":9729,
			"minFilter":9987
		}
	],
	"buffers":[
		{
			"byteLength":375768,
			"uri":"stand.bin"
		}
	]
}
